<mxfile host="app.diagrams.net" agent="Mozilla/5.0 (Windows NT 10.0; Win64; x64) AppleWebKit/537.36 (KHTML, like Gecko) Chrome/135.0.0.0 Safari/537.36" version="26.2.14">
  <diagram name="Halaman-1" id="C_LS5Rp8uLzzf6u6dSYs">
    <mxGraphModel dx="2180" dy="1063" grid="1" gridSize="10" guides="1" tooltips="1" connect="1" arrows="1" fold="1" page="1" pageScale="1" pageWidth="827" pageHeight="1169" math="0" shadow="0">
      <root>
        <mxCell id="0" />
        <mxCell id="1" parent="0" />
        <mxCell id="2" value="CPU_Slaves" style="whiteSpace=wrap;strokeWidth=2;" parent="1" vertex="1">
          <mxGeometry x="137" y="135" width="739" height="104" as="geometry" />
        </mxCell>
        <mxCell id="3" value="Memory_Hierarchy" style="whiteSpace=wrap;strokeWidth=2;" parent="1" vertex="1">
          <mxGeometry x="206" y="415" width="614" height="104" as="geometry" />
        </mxCell>
        <mxCell id="11" value="Input/Output Controller" style="whiteSpace=wrap;strokeWidth=2;" parent="1" vertex="1">
          <mxGeometry x="975" y="160" width="233" height="54" as="geometry" />
        </mxCell>
        <mxCell id="12" value="Peripheral Devices" style="whiteSpace=wrap;strokeWidth=2;" parent="1" vertex="1">
          <mxGeometry x="893" y="311" width="192" height="54" as="geometry" />
        </mxCell>
        <mxCell id="13" value="Storage" style="whiteSpace=wrap;strokeWidth=2;" parent="1" vertex="1">
          <mxGeometry x="1136" y="311" width="114" height="54" as="geometry" />
        </mxCell>
        <mxCell id="14" value="Communicates" style="curved=1;startArrow=none;endArrow=block;exitX=0;exitY=0.67;entryX=0;entryY=0.22;" parent="1" edge="1">
          <mxGeometry relative="1" as="geometry">
            <Array as="points">
              <mxPoint x="62" y="98" />
              <mxPoint x="62" y="275" />
            </Array>
            <mxPoint x="479" y="44.180000000000064" as="sourcePoint" />
            <mxPoint x="361" y="322.88" as="targetPoint" />
          </mxGeometry>
        </mxCell>
        <mxCell id="18" value="" style="curved=1;startArrow=none;endArrow=block;exitX=0.31;exitY=1.01;entryX=1;entryY=0.07;" parent="1" edge="1">
          <mxGeometry relative="1" as="geometry">
            <Array as="points">
              <mxPoint x="386" y="390" />
              <mxPoint x="386" y="415" />
            </Array>
            <mxPoint x="421.5490196078431" y="365" as="sourcePoint" />
            <mxPoint x="331" y="443.78" as="targetPoint" />
          </mxGeometry>
        </mxCell>
        <mxCell id="19" value="" style="curved=1;startArrow=none;endArrow=block;exitX=0.72;exitY=1.01;entryX=0.04;entryY=0.01;" parent="1" edge="1">
          <mxGeometry relative="1" as="geometry">
            <Array as="points">
              <mxPoint x="539" y="390" />
              <mxPoint x="539" y="415" />
            </Array>
            <mxPoint x="499.12745098039227" y="365" as="sourcePoint" />
            <mxPoint x="582.1530612244899" y="440" as="targetPoint" />
          </mxGeometry>
        </mxCell>
        <mxCell id="20" value="Sends Data" style="curved=1;startArrow=none;endArrow=block;exitX=0.38;exitY=0.99;entryX=0;entryY=0.05;" parent="1" edge="1">
          <mxGeometry relative="1" as="geometry">
            <Array as="points">
              <mxPoint x="210" y="239" />
              <mxPoint x="210" y="275" />
            </Array>
            <mxPoint x="226.36734693877565" y="214" as="sourcePoint" />
            <mxPoint x="361" y="313.70000000000005" as="targetPoint" />
          </mxGeometry>
        </mxCell>
        <mxCell id="21" value="Receives Data" style="curved=1;startArrow=none;endArrow=block;exitX=0.61;exitY=0.99;entryX=0;entryY=0.37;" parent="1" edge="1">
          <mxGeometry relative="1" as="geometry">
            <Array as="points">
              <mxPoint x="274" y="239" />
              <mxPoint x="274" y="415" />
            </Array>
            <mxPoint x="260.1632653061224" y="214" as="sourcePoint" />
            <mxPoint x="579" y="459.98" as="targetPoint" />
          </mxGeometry>
        </mxCell>
        <mxCell id="22" value="Sends Data" style="curved=1;startArrow=none;endArrow=block;exitX=0.17;exitY=0.99;entryX=0.5;entryY=0.01;" parent="1" edge="1">
          <mxGeometry relative="1" as="geometry">
            <Array as="points">
              <mxPoint x="458" y="239" />
            </Array>
            <mxPoint x="500.51020408163276" y="214" as="sourcePoint" />
            <mxPoint x="457.5" y="311" as="targetPoint" />
          </mxGeometry>
        </mxCell>
        <mxCell id="23" value="Receives Data" style="curved=1;startArrow=none;endArrow=block;exitX=0.83;exitY=0.99;entryX=0.56;entryY=0.01;" parent="1" edge="1">
          <mxGeometry relative="1" as="geometry">
            <Array as="points">
              <mxPoint x="641" y="239" />
              <mxPoint x="641" y="415" />
            </Array>
            <mxPoint x="597.4897959183672" y="214" as="sourcePoint" />
            <mxPoint x="636.8061224489797" y="440" as="targetPoint" />
          </mxGeometry>
        </mxCell>
        <mxCell id="24" value="Sends Data" style="curved=1;startArrow=none;endArrow=block;exitX=0.26;exitY=0.99;entryX=1;entryY=0.04;" parent="1" edge="1">
          <mxGeometry relative="1" as="geometry">
            <Array as="points">
              <mxPoint x="702" y="239" />
              <mxPoint x="702" y="275" />
            </Array>
            <mxPoint x="733.7346938775511" y="214" as="sourcePoint" />
            <mxPoint x="554" y="313.15999999999997" as="targetPoint" />
          </mxGeometry>
        </mxCell>
        <mxCell id="25" value="Receives Data" style="curved=1;startArrow=none;endArrow=block;exitX=0.61;exitY=0.99;entryX=1.01;entryY=0.21;" parent="1" edge="1">
          <mxGeometry relative="1" as="geometry">
            <Array as="points">
              <mxPoint x="800" y="239" />
              <mxPoint x="800" y="415" />
            </Array>
            <mxPoint x="785.1632653061224" y="214" as="sourcePoint" />
            <mxPoint x="682" y="451.6470588235294" as="targetPoint" />
          </mxGeometry>
        </mxCell>
        <mxCell id="26" value="" style="curved=1;startArrow=none;endArrow=block;exitX=1;exitY=0.65;entryX=0.5;entryY=-0.01;" parent="1" target="11" edge="1">
          <mxGeometry relative="1" as="geometry">
            <Array as="points">
              <mxPoint x="1091" y="98" />
            </Array>
            <mxPoint x="620.0000000000002" y="43.09999999999991" as="sourcePoint" />
          </mxGeometry>
        </mxCell>
        <mxCell id="27" value="" style="curved=1;startArrow=none;endArrow=block;exitX=0.27;exitY=0.99;entryX=0.5;entryY=0.01;" parent="1" source="11" target="12" edge="1">
          <mxGeometry relative="1" as="geometry">
            <Array as="points">
              <mxPoint x="990" y="239" />
            </Array>
          </mxGeometry>
        </mxCell>
        <mxCell id="28" value="" style="curved=1;startArrow=none;endArrow=block;exitX=0.72;exitY=0.99;entryX=0.5;entryY=0.01;" parent="1" source="11" target="13" edge="1">
          <mxGeometry relative="1" as="geometry">
            <Array as="points">
              <mxPoint x="1193" y="239" />
            </Array>
          </mxGeometry>
        </mxCell>
        <mxCell id="it6CWY1YX4sThSlrOvLw-28" value="" style="editableCssRules=.*;html=1;shape=image;verticalLabelPosition=bottom;labelBackgroundColor=#ffffff;verticalAlign=top;aspect=fixed;imageAspect=0;image=data:image/svg+xml,PHN2ZyB4bWxucz0iaHR0cDovL3d3dy53My5vcmcvMjAwMC9zdmciIHhtbG5zOnY9Imh0dHBzOi8vdmVjdGEuaW8vbmFubyIgd2lkdGg9IjE3IiBoZWlnaHQ9IjE1IiB2aWV3Qm94PSIwIDAgMTcgMTUiPiYjeGE7CTxzdHlsZSB0eXBlPSJ0ZXh0L2NzcyI+JiN4YTsJLnN0MHtmaWxsOiM0Mjg1ZjQ7fSYjeGE7CTwvc3R5bGU+JiN4YTsJPHBhdGggY2xhc3M9InN0MCIgZD0iTTIgN2gxNEw5IDB6bTcuNSAySDZ2NmgxLjV2LTJoMmExLjU0IDEuNTQgMCAwIDAgMS41LTEuNXYtMUExLjU0IDEuNTQgMCAwIDAgOS41IDl6bTAgMi41aC0ydi0xaDJ6bS00LjUtMVY5SDEuNUExLjU0IDEuNTQgMCAwIDAgMCAxMC41djNBMS41NCAxLjU0IDAgMCAwIDEuNSAxNUg1di0xLjVIMS41di0zek0xNS41IDl2NC41aC0yVjlIMTJ2NC41YTEuNTQgMS41NCAwIDAgMCAxLjUgMS41aDJhMS41NCAxLjU0IDAgMCAwIDEuNS0xLjVWOXoiLz4mI3hhOzwvc3ZnPg==;rounded=1;" vertex="1" parent="1">
          <mxGeometry x="519.54" width="58.93" height="52" as="geometry" />
        </mxCell>
        <mxCell id="it6CWY1YX4sThSlrOvLw-35" style="edgeStyle=orthogonalEdgeStyle;curved=1;rounded=1;orthogonalLoop=1;jettySize=auto;html=1;" edge="1" parent="1" source="it6CWY1YX4sThSlrOvLw-31" target="it6CWY1YX4sThSlrOvLw-32">
          <mxGeometry relative="1" as="geometry" />
        </mxCell>
        <mxCell id="it6CWY1YX4sThSlrOvLw-36" style="edgeStyle=orthogonalEdgeStyle;curved=1;rounded=1;orthogonalLoop=1;jettySize=auto;html=1;" edge="1" parent="1" source="it6CWY1YX4sThSlrOvLw-31" target="it6CWY1YX4sThSlrOvLw-33">
          <mxGeometry relative="1" as="geometry" />
        </mxCell>
        <mxCell id="it6CWY1YX4sThSlrOvLw-37" style="edgeStyle=orthogonalEdgeStyle;curved=1;rounded=1;orthogonalLoop=1;jettySize=auto;html=1;" edge="1" parent="1" source="it6CWY1YX4sThSlrOvLw-31" target="it6CWY1YX4sThSlrOvLw-34">
          <mxGeometry relative="1" as="geometry" />
        </mxCell>
        <mxCell id="it6CWY1YX4sThSlrOvLw-31" value="CPU MASTER" style="text;html=1;align=center;verticalAlign=middle;whiteSpace=wrap;rounded=0;" vertex="1" parent="1">
          <mxGeometry x="504" y="50" width="90" height="30" as="geometry" />
        </mxCell>
        <mxCell id="it6CWY1YX4sThSlrOvLw-32" value="" style="sketch=0;pointerEvents=1;shadow=0;dashed=0;html=1;strokeColor=none;fillColor=#434445;aspect=fixed;labelPosition=center;verticalLabelPosition=bottom;verticalAlign=top;align=center;outlineConnect=0;shape=mxgraph.vvd.cpu;rounded=1;" vertex="1" parent="1">
          <mxGeometry x="210" y="170" width="60" height="60" as="geometry" />
        </mxCell>
        <mxCell id="it6CWY1YX4sThSlrOvLw-33" value="" style="sketch=0;pointerEvents=1;shadow=0;dashed=0;html=1;strokeColor=none;fillColor=#434445;aspect=fixed;labelPosition=center;verticalLabelPosition=bottom;verticalAlign=top;align=center;outlineConnect=0;shape=mxgraph.vvd.cpu;rounded=1;" vertex="1" parent="1">
          <mxGeometry x="508.24" y="150" width="81.53" height="81.53" as="geometry" />
        </mxCell>
        <mxCell id="it6CWY1YX4sThSlrOvLw-34" value="" style="sketch=0;pointerEvents=1;shadow=0;dashed=0;html=1;strokeColor=none;fillColor=#434445;aspect=fixed;labelPosition=center;verticalLabelPosition=bottom;verticalAlign=top;align=center;outlineConnect=0;shape=mxgraph.vvd.cpu;rounded=1;" vertex="1" parent="1">
          <mxGeometry x="730" y="170" width="60" height="60" as="geometry" />
        </mxCell>
        <mxCell id="it6CWY1YX4sThSlrOvLw-38" value="CPU SLAVE" style="text;html=1;align=center;verticalAlign=middle;whiteSpace=wrap;rounded=0;" vertex="1" parent="1">
          <mxGeometry x="205" y="150" width="70" height="30" as="geometry" />
        </mxCell>
        <mxCell id="it6CWY1YX4sThSlrOvLw-39" value="CPU SLAVE" style="text;html=1;align=center;verticalAlign=middle;whiteSpace=wrap;rounded=0;" vertex="1" parent="1">
          <mxGeometry x="514" y="160" width="70" height="30" as="geometry" />
        </mxCell>
        <mxCell id="it6CWY1YX4sThSlrOvLw-40" value="CPU SLAVE" style="text;html=1;align=center;verticalAlign=middle;whiteSpace=wrap;rounded=0;" vertex="1" parent="1">
          <mxGeometry x="725" y="180" width="70" height="30" as="geometry" />
        </mxCell>
        <mxCell id="it6CWY1YX4sThSlrOvLw-41" value="" style="sketch=0;pointerEvents=1;shadow=0;dashed=0;html=1;strokeColor=none;fillColor=#434445;aspect=fixed;labelPosition=center;verticalLabelPosition=bottom;verticalAlign=top;align=center;outlineConnect=0;shape=mxgraph.vvd.memory;rounded=1;" vertex="1" parent="1">
          <mxGeometry x="360" y="311" width="200" height="76" as="geometry" />
        </mxCell>
        <mxCell id="it6CWY1YX4sThSlrOvLw-42" value="MEMORY CONTROLLER" style="text;html=1;align=center;verticalAlign=middle;whiteSpace=wrap;rounded=0;" vertex="1" parent="1">
          <mxGeometry x="390" y="290" width="150" height="30" as="geometry" />
        </mxCell>
        <mxCell id="it6CWY1YX4sThSlrOvLw-43" value="" style="pointerEvents=1;shadow=0;dashed=0;html=1;strokeColor=none;fillColor=#4495D1;labelPosition=center;verticalLabelPosition=bottom;verticalAlign=top;align=center;outlineConnect=0;shape=mxgraph.veeam.ram;rounded=1;" vertex="1" parent="1">
          <mxGeometry x="250" y="440" width="80" height="50" as="geometry" />
        </mxCell>
        <mxCell id="it6CWY1YX4sThSlrOvLw-44" value="RAM" style="text;html=1;align=center;verticalAlign=middle;whiteSpace=wrap;rounded=0;" vertex="1" parent="1">
          <mxGeometry x="260" y="489" width="60" height="30" as="geometry" />
        </mxCell>
        <mxCell id="it6CWY1YX4sThSlrOvLw-45" value="" style="sketch=0;outlineConnect=0;fontColor=#232F3E;gradientColor=none;fillColor=#C925D1;strokeColor=none;dashed=0;verticalLabelPosition=bottom;verticalAlign=top;align=center;html=1;fontSize=12;fontStyle=0;aspect=fixed;pointerEvents=1;shape=mxgraph.aws4.cache_node;rounded=1;" vertex="1" parent="1">
          <mxGeometry x="600" y="440" width="60" height="60" as="geometry" />
        </mxCell>
        <mxCell id="it6CWY1YX4sThSlrOvLw-46" value="" style="image;aspect=fixed;html=1;points=[];align=center;fontSize=12;image=img/lib/azure2/general/Input_Output.svg;rounded=1;" vertex="1" parent="1">
          <mxGeometry x="1160" y="170" width="38" height="32.65" as="geometry" />
        </mxCell>
        <mxCell id="it6CWY1YX4sThSlrOvLw-47" value="" style="image;aspect=fixed;perimeter=ellipsePerimeter;html=1;align=center;shadow=0;dashed=0;spacingTop=3;image=img/lib/active_directory/input_output_filter.svg;rounded=1;" vertex="1" parent="1">
          <mxGeometry x="990" y="166.33" width="26.8" height="40" as="geometry" />
        </mxCell>
        <mxCell id="it6CWY1YX4sThSlrOvLw-48" value="" style="html=1;verticalLabelPosition=bottom;align=center;labelBackgroundColor=#ffffff;verticalAlign=top;strokeWidth=2;strokeColor=#0080F0;shadow=0;dashed=0;shape=mxgraph.ios7.icons.storage;rounded=1;" vertex="1" parent="1">
          <mxGeometry x="1173" y="320" width="40" height="10.5" as="geometry" />
        </mxCell>
        <mxCell id="it6CWY1YX4sThSlrOvLw-49" value="" style="shape=mxgraph.cisco.computers_and_peripherals.pc_routercard;html=1;pointerEvents=1;dashed=0;fillColor=#036897;strokeColor=#ffffff;strokeWidth=2;verticalLabelPosition=bottom;verticalAlign=top;align=center;outlineConnect=0;rounded=1;" vertex="1" parent="1">
          <mxGeometry x="900" y="320" width="37" height="35" as="geometry" />
        </mxCell>
        <mxCell id="it6CWY1YX4sThSlrOvLw-50" value="" style="shape=mxgraph.cisco.computers_and_peripherals.tablet;html=1;pointerEvents=1;dashed=0;fillColor=#036897;strokeColor=#ffffff;strokeWidth=2;verticalLabelPosition=bottom;verticalAlign=top;align=center;outlineConnect=0;rounded=1;" vertex="1" parent="1">
          <mxGeometry x="1040" y="327.5" width="40" height="20" as="geometry" />
        </mxCell>
      </root>
    </mxGraphModel>
  </diagram>
</mxfile>
